<svg width="20" height="20" viewBox="0 0 20 20" fill="none" xmlns="http://www.w3.org/2000/svg">
<path fill-rule="evenodd" clip-rule="evenodd" d="M6.19047 3.33327H8.09523V16.6666H6.19047C5.68529 16.6666 5.20081 16.4659 4.8436 16.1087C4.48639 15.7515 4.28571 15.267 4.28571 14.7618V5.23804C4.28571 4.73286 4.48639 4.24838 4.8436 3.89116C5.20081 3.53395 5.68529 3.33327 6.19047 3.33327ZM10.6686 1.44089L14.4781 2.86946C14.8412 3.00559 15.1542 3.24933 15.3751 3.56809C15.596 3.88685 15.7143 4.26545 15.7143 4.65327V15.3466C15.7143 15.7344 15.596 16.113 15.3751 16.4318C15.1542 16.7506 14.8412 16.9943 14.4781 17.1304L10.6686 18.559C10.3804 18.667 10.0703 18.7036 9.76488 18.6656C9.45946 18.6276 9.16779 18.5162 8.91485 18.3408C8.6619 18.1655 8.45522 17.9315 8.31247 17.6588C8.16973 17.3862 8.09519 17.083 8.09523 16.7752V3.2247C8.09519 2.91693 8.16973 2.61373 8.31247 2.34106C8.45522 2.06839 8.6619 1.83437 8.91485 1.65903C9.16779 1.48369 9.45946 1.37226 9.76488 1.33427C10.0703 1.29628 10.3804 1.33286 10.6686 1.44089Z" stroke="black" stroke-linecap="round" stroke-linejoin="round"/>
<path d="M9.99999 10.9524C10.526 10.9524 10.9524 10.526 10.9524 9.99999C10.9524 9.474 10.526 9.04761 9.99999 9.04761C9.474 9.04761 9.04761 9.474 9.04761 9.99999C9.04761 10.526 9.474 10.9524 9.99999 10.9524Z" fill="black"/>
</svg>
