<svg width="20" height="20" viewBox="0 0 20 20" fill="none" xmlns="http://www.w3.org/2000/svg">
<path fill-rule="evenodd" clip-rule="evenodd" d="M13.54 3.36C12.6064 2.42615 11.3454 1.89338 10.025 1.875H9.97501C8.65456 1.89311 7.39329 2.42571 6.4595 3.35949C5.52572 4.29328 4.99312 5.55455 4.97501 6.875C4.95876 7.8125 5.22251 8.73375 5.73251 9.52125L9.66751 17.5H10.3338L14.2675 9.52125C14.7788 8.73375 15.0425 7.8125 15.025 6.875C15.0066 5.55466 14.4739 4.29358 13.54 3.36ZM9.90626 3.125L10.0088 3.1375L10.1013 3.125C11.0832 3.16777 12.0115 3.58508 12.6952 4.29116C13.379 4.99724 13.7663 5.93843 13.7775 6.92125C13.7871 7.61879 13.5834 8.30261 13.1938 8.88125L13.1688 8.92375L13.1475 8.9675L10 15.3488L6.85376 8.97375L6.83251 8.925L6.80751 8.8825C6.41786 8.30386 6.2142 7.62004 6.22376 6.9225C6.23442 5.93854 6.62217 4.99616 7.30708 4.28962C7.99199 3.58309 8.92186 3.16624 9.90501 3.125H9.90626ZM10.6713 5.83625C10.5348 5.74498 10.3816 5.68149 10.2206 5.6494C10.0596 5.61731 9.8938 5.61726 9.73275 5.64924C9.5717 5.68121 9.41852 5.7446 9.28197 5.83578C9.14542 5.92695 9.02816 6.04413 8.93689 6.18062C8.84562 6.31712 8.78213 6.47025 8.75004 6.63128C8.71795 6.79231 8.7179 6.95808 8.74987 7.11913C8.78185 7.28019 8.84524 7.43336 8.93641 7.56992C9.02759 7.70647 9.14477 7.82373 9.28126 7.915C9.55692 8.09933 9.89451 8.1666 10.2198 8.10201C10.545 8.03743 10.8313 7.84628 11.0156 7.57062C11.2 7.29497 11.2672 6.95737 11.2027 6.63212C11.1381 6.30686 10.9469 6.02058 10.6713 5.83625ZM8.58751 4.79625C8.86025 4.60453 9.16859 4.46929 9.49437 4.3985C9.82015 4.32771 10.1568 4.3228 10.4845 4.38405C10.8122 4.4453 11.1244 4.57147 11.4026 4.75515C11.6808 4.93883 11.9195 5.1763 12.1046 5.45359C12.2896 5.73088 12.4174 6.04239 12.4803 6.36978C12.5432 6.69718 12.54 7.03385 12.4709 7.35999C12.4017 7.68612 12.268 7.99513 12.0777 8.26884C11.8874 8.54254 11.6442 8.77542 11.3625 8.95375C10.8111 9.30283 10.1451 9.42248 9.50672 9.28714C8.86832 9.15179 8.30815 8.77219 7.94585 8.2294C7.58356 7.68661 7.44787 7.02368 7.56776 6.3822C7.68766 5.74071 8.05363 5.17154 8.58751 4.79625Z" fill="black"/>
</svg>
