<svg width="30" height="30" viewBox="0 0 30 30" fill="none" xmlns="http://www.w3.org/2000/svg">
<path fill-rule="evenodd" clip-rule="evenodd" d="M20.625 11.5844C21.3519 11.8019 21.875 11.875 21.875 11.875V10H23.125C23.9538 10 24.7487 9.67076 25.3347 9.08471C25.9208 8.49866 26.25 7.7038 26.25 6.875C26.25 6.0462 25.9208 5.25134 25.3347 4.66529C24.7487 4.07924 23.9538 3.75 23.125 3.75H19.5225C18.6546 3.75 17.8222 4.09478 17.2085 4.70849C16.5948 5.32221 16.25 6.15458 16.25 7.0225C16.25 9.84625 18.9675 11.0887 20.625 11.5844ZM25 6.875C25 7.37228 24.8025 7.84919 24.4508 8.20083C24.0992 8.55246 23.6223 8.75 23.125 8.75H20.625V10.2719C20.2821 10.1554 19.9474 10.0162 19.6231 9.855C18.3837 9.23375 17.5 8.35 17.5 7.0225C17.5 6.4861 17.7131 5.97167 18.0924 5.59238C18.4717 5.21308 18.9861 5 19.5225 5H23.125C23.6223 5 24.0992 5.19754 24.4508 5.54917C24.8025 5.90081 25 6.37772 25 6.875ZM9.26063 11.2456C8.44157 11.2173 7.66647 10.8682 7.10244 10.2736C6.53842 9.679 6.23064 8.88658 6.24549 8.06718C6.26033 7.24777 6.59659 6.46701 7.18178 5.89325C7.76697 5.31949 8.55421 4.99868 9.37375 5H11.3544C12.1555 5 12.9238 5.31824 13.4903 5.88472C14.0568 6.4512 14.375 7.21951 14.375 8.02063C14.375 10.5469 12.1062 11.7019 10.625 12.1875C9.9075 12.4225 9.375 12.5 9.375 12.5V11.25L9.26063 11.2456ZM10.625 10.0444L9.30625 9.99687C8.81068 9.9861 8.33956 9.77941 7.99606 9.42203C7.65256 9.06466 7.46466 8.58574 7.47351 8.09013C7.48236 7.59452 7.68722 7.12261 8.04326 6.77772C8.3993 6.43284 8.87748 6.24308 9.37313 6.25H11.3538C11.5863 6.24992 11.8166 6.29566 12.0315 6.3846C12.2464 6.47355 12.4417 6.60396 12.6062 6.76838C12.7707 6.93281 12.9011 7.12803 12.9902 7.34289C13.0792 7.55775 13.125 7.78805 13.125 8.02063C13.125 9.2175 12.3644 10.0019 11.2975 10.5581C11.0725 10.6756 10.8444 10.7756 10.625 10.8606V10.0444ZM17.5 15C17.5 16.3813 16.3813 17.5 15 17.5C13.6187 17.5 12.5 16.3813 12.5 15C12.5 13.6187 13.6187 12.5 15 12.5C16.3813 12.5 17.5 13.6187 17.5 15ZM16.25 15C16.25 15.3315 16.1183 15.6495 15.8839 15.8839C15.6495 16.1183 15.3315 16.25 15 16.25C14.6685 16.25 14.3505 16.1183 14.1161 15.8839C13.8817 15.6495 13.75 15.3315 13.75 15C13.75 14.6685 13.8817 14.3505 14.1161 14.1161C14.3505 13.8817 14.6685 13.75 15 13.75C15.3315 13.75 15.6495 13.8817 15.8839 14.1161C16.1183 14.3505 16.25 14.6685 16.25 15ZM11.875 16.25C11.875 17.6313 10.7562 18.75 9.375 18.75C7.99375 18.75 6.875 17.6313 6.875 16.25C6.875 14.8687 7.99375 13.75 9.375 13.75C10.7562 13.75 11.875 14.8687 11.875 16.25ZM10.625 16.25C10.625 16.5815 10.4933 16.8995 10.2589 17.1339C10.0245 17.3683 9.70652 17.5 9.375 17.5C9.04348 17.5 8.72554 17.3683 8.49112 17.1339C8.2567 16.8995 8.125 16.5815 8.125 16.25C8.125 15.9185 8.2567 15.6005 8.49112 15.3661C8.72554 15.1317 9.04348 15 9.375 15C9.70652 15 10.0245 15.1317 10.2589 15.3661C10.4933 15.6005 10.625 15.9185 10.625 16.25ZM3.75 22.8413C3.75 20.9513 7.4975 20 9.375 20C9.74062 20 10.1775 20.0363 10.6438 20.1081C11.4819 19.4938 13.0169 18.75 15 18.75C16.9825 18.75 18.5181 19.4938 19.3569 20.1081C19.7763 20.0405 20.2002 20.0043 20.625 20C22.5025 20 26.25 20.9519 26.25 22.8406V26.25H3.75V22.8406M13.5325 22.5138C13.75 22.7162 13.75 22.8219 13.75 22.84V25H5V22.8406C5 22.8219 5 22.7169 5.2175 22.5144C5.44437 22.3025 5.81875 22.0769 6.3275 21.8706C7.3475 21.4581 8.59375 21.25 9.375 21.25C10.1562 21.25 11.4025 21.4581 12.4225 21.8706C12.9312 22.0769 13.3056 22.3019 13.5325 22.5138ZM17.5887 20.535C16.7717 20.1807 15.8905 19.9986 15 20C13.965 20 13.085 20.2412 12.4119 20.535C13.7962 21 15 21.77 15 22.8413C15 21.77 16.2037 21.0006 17.5887 20.535ZM25 22.8413C25 22.8225 25 22.7169 24.7825 22.5144C24.5556 22.3025 24.1812 22.0769 23.6725 21.8706C22.6525 21.4581 21.4062 21.25 20.625 21.25C19.8438 21.25 18.5975 21.4581 17.5775 21.8706C17.0688 22.0769 16.6944 22.3025 16.4675 22.5144C16.25 22.7169 16.25 22.8225 16.25 22.8406V25H25V22.8406M20.625 18.75C22.0063 18.75 23.125 17.6313 23.125 16.25C23.125 14.8687 22.0063 13.75 20.625 13.75C19.2437 13.75 18.125 14.8687 18.125 16.25C18.125 17.6313 19.2437 18.75 20.625 18.75ZM20.625 17.5C20.9565 17.5 21.2745 17.3683 21.5089 17.1339C21.7433 16.8995 21.875 16.5815 21.875 16.25C21.875 15.9185 21.7433 15.6005 21.5089 15.3661C21.2745 15.1317 20.9565 15 20.625 15C20.2935 15 19.9755 15.1317 19.7411 15.3661C19.5067 15.6005 19.375 15.9185 19.375 16.25C19.375 16.5815 19.5067 16.8995 19.7411 17.1339C19.9755 17.3683 20.2935 17.5 20.625 17.5Z" fill="black"/>
</svg>
