<svg width="24" height="24" viewBox="0 0 24 24" fill="none" xmlns="http://www.w3.org/2000/svg">
<path d="M1.5 20.4999V8.43695C1.2 8.29161 0.958333 8.09628 0.775 7.85095C0.591667 7.60561 0.5 7.32195 0.5 6.99995C0.5 6.70661 0.629333 6.36495 0.888 5.97495C1.14733 5.58495 1.518 5.16395 2 4.71195C2.482 5.16395 2.85267 5.58495 3.112 5.97495C3.37067 6.36495 3.5 6.70661 3.5 6.99995C3.5 7.32261 3.40833 7.60628 3.225 7.85095C3.04167 8.09628 2.8 8.29161 2.5 8.43695V13.4999H5.5V10.9999C5.5 10.6086 5.63 10.2696 5.89 9.98295C6.15 9.69561 6.48533 9.53861 6.896 9.51195H7.588C7.238 9.18995 6.96933 8.82695 6.782 8.42295C6.594 8.01895 6.5 7.57795 6.5 7.09995C6.5 6.51995 6.63933 5.98328 6.918 5.48995C7.196 4.99728 7.56933 4.59161 8.038 4.27295L12 1.59595L15.962 4.27295C16.4307 4.59161 16.804 4.99761 17.082 5.49095C17.36 5.98428 17.4993 6.52061 17.5 7.09995C17.5 7.57795 17.406 8.01895 17.218 8.42295C17.03 8.82695 16.7613 9.18995 16.412 9.51195H17.104C17.514 9.53861 17.8493 9.69528 18.11 9.98195C18.37 10.2693 18.5 10.6086 18.5 10.9999V13.4999H21.5V8.43695C21.2 8.29161 20.9583 8.09628 20.775 7.85095C20.5917 7.60561 20.5 7.32195 20.5 6.99995C20.5 6.70661 20.6293 6.36495 20.888 5.97495C21.1473 5.58495 21.518 5.16395 22 4.71195C22.482 5.16395 22.8527 5.58495 23.112 5.97495C23.3707 6.36495 23.5 6.70661 23.5 6.99995C23.5 7.32261 23.4083 7.60628 23.225 7.85095C23.0417 8.09628 22.8 8.29161 22.5 8.43695V20.4999H13.5V16.9999C13.5 16.5886 13.353 16.2356 13.059 15.9409C12.7643 15.6469 12.4113 15.4999 12 15.4999C11.5887 15.4999 11.2357 15.6469 10.941 15.9409C10.647 16.2356 10.5 16.5886 10.5 16.9999V20.4999H1.5ZM9.9 9.49995H14.1C14.7613 9.49995 15.3267 9.26528 15.796 8.79595C16.2653 8.32661 16.5 7.76228 16.5 7.10295C16.5 6.69095 16.4057 6.30561 16.217 5.94695C16.029 5.58895 15.763 5.29895 15.419 5.07695L12 2.80395L8.58 5.07695C8.23667 5.29895 7.971 5.58895 7.783 5.94695C7.59433 6.30561 7.5 6.69095 7.5 7.10295C7.5 7.76295 7.73467 8.32728 8.204 8.79595C8.67333 9.26528 9.23867 9.49995 9.9 9.49995ZM2.5 19.4999H9.5V16.9999C9.5 16.3053 9.743 15.7153 10.229 15.2299C10.7143 14.7433 11.304 14.4999 11.998 14.4999C12.6913 14.4999 13.2817 14.7433 13.769 15.2299C14.2563 15.7153 14.5 16.3053 14.5 16.9999V19.4999H21.5V14.4999H17.5V10.9999C17.5 10.8586 17.452 10.7399 17.356 10.6439C17.26 10.5479 17.1413 10.4999 17 10.4999H7C6.85867 10.4999 6.74 10.5479 6.644 10.6439C6.548 10.7399 6.5 10.8586 6.5 10.9999V14.4999H2.5V19.4999Z" fill="black"/>
</svg>
